<?xml version="1.0" encoding="UTF-8"?>
<svg version="1.1" xmlns="http://www.w3.org/2000/svg" width="512" height="512">
<path d="M0 0 C0.16483076 6.7281332 -0.25323743 13.11896497 -1.28515625 19.76416016 C-1.42170624 20.68245605 -1.55825623 21.60075195 -1.69894409 22.546875 C-2.14655366 25.54535422 -2.60442792 28.54216543 -3.0625 31.5390625 C-3.37702185 33.63217753 -3.69089532 35.72539008 -4.00415039 37.81869507 C-4.82626457 43.30061059 -5.65712503 48.78116505 -6.48986816 54.26147461 C-7.33971946 59.86492106 -8.18121737 65.46962117 -9.0234375 71.07421875 C-10.67415894 82.05071595 -12.33413112 93.02579221 -14 104 C-17 105 -17 105 -19.91796875 103.56640625 C-20.99691406 102.90511719 -22.07585937 102.24382812 -23.1875 101.5625 C-24.81751953 100.57443359 -24.81751953 100.57443359 -26.48046875 99.56640625 C-27.31191406 99.04949219 -28.14335937 98.53257812 -29 98 C-31.81475786 101.35617452 -34.05420974 104.6740307 -36.1015625 108.54296875 C-36.95282715 110.14011719 -36.95282715 110.14011719 -37.82128906 111.76953125 C-38.71412598 113.46142578 -38.71412598 113.46142578 -39.625 115.1875 C-40.88050958 117.54680288 -42.13967848 119.90414835 -43.3984375 122.26171875 C-44.01299805 123.41462402 -44.62755859 124.5675293 -45.26074219 125.75537109 C-47.55019038 130.02639391 -49.88743414 134.26908093 -52.25 138.5 C-52.65017334 139.21704102 -53.05034668 139.93408203 -53.46264648 140.67285156 C-54.25341188 142.08832968 -55.04466218 143.50353703 -55.83642578 144.91845703 C-57.79416691 148.42070228 -59.74020418 151.92943985 -61.6875 155.4375 C-64.5908151 160.66497149 -67.49571755 165.89155628 -70.40234375 171.1171875 C-79.63775833 187.72492569 -88.8276145 204.3573897 -98 221 C-100.68696383 225.87529573 -103.37427392 230.75040014 -106.0625 235.625 C-106.55978104 236.52674957 -106.55978104 236.52674957 -107.06710815 237.44671631 C-112.47139556 247.24497797 -117.90012464 257.02948908 -123.34033203 266.80786133 C-126.64305724 272.74727814 -129.93630594 278.69173881 -133.21484375 284.64453125 C-133.74514694 285.60714371 -133.74514694 285.60714371 -134.28616333 286.58920288 C-135.98270938 289.66928609 -137.67796479 292.75006839 -139.37109375 295.83203125 C-143.83206159 303.93612283 -148.38920124 311.98059297 -153 320 C-153.66 320 -154.32 320 -155 320 C-157.23334888 303.67731441 -159.35445712 287.34483981 -161.32421875 270.98828125 C-161.4210709 270.18488186 -161.51792305 269.38148247 -161.61771011 268.55373764 C-162.515621 261.10117859 -163.40849562 253.64801881 -164.29907227 246.19458008 C-164.79383485 242.05538293 -165.29161433 237.91655752 -165.79123878 233.77794456 C-165.97862693 232.22035189 -166.16481982 230.66261492 -166.34976768 229.10473061 C-166.60495009 226.95529421 -166.86393304 224.80634752 -167.1237793 222.6574707 C-167.3421772 220.8312896 -167.3421772 220.8312896 -167.56498718 218.96821594 C-167.91831605 215.95285393 -167.91831605 215.95285393 -169 213 C-169.29543701 213.54599854 -169.59087402 214.09199707 -169.89526367 214.65454102 C-176.13726235 226.17703349 -182.46369084 237.64509073 -188.93261719 249.04174805 C-193.78047189 257.58992186 -198.55540329 266.17751309 -203.32104492 274.77172852 C-208.30585266 283.75857866 -213.31875194 292.72939717 -218.34545898 301.69287109 C-221.57656626 307.45479477 -224.7973173 313.22222374 -228 319 C-228.66 319 -229.32 319 -230 319 C-232.04118664 304.50171982 -233.68819043 289.972637 -235.2265625 275.4140625 C-235.32361229 274.49692223 -235.42066208 273.57978195 -235.52065277 272.63484955 C-236.43451627 263.99075963 -237.34073937 255.34587254 -238.24414062 246.70068359 C-238.74318685 241.92759024 -239.24645355 237.15495698 -239.75230026 232.3825798 C-239.94297651 230.5749615 -240.13195302 228.76716306 -240.31920242 226.95918655 C-240.57816533 224.45884889 -240.84242267 221.95912465 -241.10791016 219.45947266 C-241.18375839 218.71373993 -241.25960663 217.9680072 -241.3377533 217.19967651 C-241.44413326 213.80733221 -241.44413326 213.80733221 -243 211 C-243.36125977 211.7027002 -243.72251953 212.40540039 -244.09472656 213.12939453 C-250.76783714 226.09411442 -257.49572156 239.01319359 -264.52832031 251.78759766 C-268.28850283 258.63978996 -271.91226969 265.55616044 -275.5 272.5 C-279.75555778 280.71844234 -284.04376707 288.9169397 -288.4375 297.0625 C-288.90929687 297.94808594 -289.38109375 298.83367187 -289.8671875 299.74609375 C-298.20760461 315.1038023 -298.20760461 315.1038023 -306 319 C-309.8745083 319.64575138 -311.5016468 319.28344254 -314.92578125 317.3359375 C-318.20901364 314.84118151 -319.96193079 312.57743038 -322.1875 309.125 C-325.35884751 304.3367807 -328.66912305 299.74061326 -332.25 295.25 C-336.49348031 289.91654844 -340.67650421 284.54237142 -344.8125 279.125 C-345.3394043 278.43567383 -345.86630859 277.74634766 -346.40917969 277.03613281 C-349.96503793 272.37650028 -353.4899189 267.69419541 -357 263 C-359.7582793 267.12495973 -362.51497062 271.25097467 -365.27026367 275.37792969 C-366.20571163 276.77860387 -367.14157552 278.17900037 -368.07788086 279.57910156 C-368.98719889 280.93895637 -369.89593421 282.29920104 -370.80406189 283.65985107 C-371.68933046 284.98603584 -372.57600952 286.3112802 -373.46412659 287.63555908 C-375.6680866 290.93594427 -377.75398284 294.25742397 -379.7265625 297.703125 C-382.01991388 301.41698884 -384.82376222 303.19049363 -388.6875 305.25 C-389.61006592 305.7462085 -389.61006592 305.7462085 -390.55126953 306.25244141 C-407.26907747 315.07947884 -425.49064146 318.73397927 -443.97363281 313.64550781 C-457.28966926 309.40362825 -468.51206143 302.05397412 -475.12280273 289.45361328 C-479.15176375 281.34544699 -480.2317335 275.43815889 -480.3125 266.5 C-480.34150391 265.46101563 -480.37050781 264.42203125 -480.40039062 263.3515625 C-480.51482086 249.23263241 -473.60094685 237.77867415 -467.375 225.5 C-466.55687058 223.87565934 -465.73908292 222.2511465 -464.92163086 220.62646484 C-460.50470078 211.86405624 -456.03371068 203.13296587 -451.41552734 194.47460938 C-447.84754528 187.77327632 -444.47556698 180.97868239 -441.09936523 174.17919922 C-438.18527331 168.32641956 -435.19503868 162.52234472 -432.125 156.75 C-425.85133002 144.95123753 -419.93921641 132.96952511 -414 121 C-410 121 -410 121 -408.60644531 122.22729492 C-408.18459961 122.80584229 -407.76275391 123.38438965 -407.328125 123.98046875 C-406.83691162 124.63926025 -406.34569824 125.29805176 -405.83959961 125.97680664 C-405.31503174 126.70633545 -404.79046387 127.43586426 -404.25 128.1875 C-403.09030522 129.75294614 -401.93012686 131.31803411 -400.76953125 132.8828125 C-400.15803223 133.71586914 -399.5465332 134.54892578 -398.91650391 135.40722656 C-395.64456914 139.83371665 -392.2844366 144.19263264 -388.9375 148.5625 C-383.58038967 155.58606778 -378.26032061 162.63614189 -372.97143555 169.71118164 C-369.37252804 174.5199962 -365.72025352 179.28418568 -362 184 C-359.66636189 181.04281795 -357.83631058 178.01824516 -356.06640625 174.6953125 C-355.50622803 173.64843262 -354.9460498 172.60155273 -354.36889648 171.52294922 C-353.77278564 170.40162598 -353.1766748 169.28030273 -352.5625 168.125 C-351.61494974 166.35350899 -350.6673924 164.58202162 -349.71907043 162.8109436 C-349.07645829 161.61075218 -348.43419739 160.41037263 -347.7922821 159.20980835 C-344.87078492 153.74831502 -341.91010594 148.30879581 -338.9375 142.875 C-333.16391142 132.31056133 -327.42799889 121.7259577 -321.69824219 111.13769531 C-318.69615068 105.59099031 -315.69166645 100.04558137 -312.6875 94.5 C-311.58722956 92.46875543 -310.48696817 90.43750595 -309.38671875 88.40625 C-308.59114583 86.9375 -307.79557292 85.46875 -307 84 C-306.34 84 -305.68 84 -305 84 C-304.73607725 91.80736123 -304.47510979 99.61481552 -304.21769714 107.4223938 C-304.09802307 111.04954789 -303.97741138 114.67666525 -303.85449219 118.30371094 C-303.73543296 121.81795868 -303.6190515 125.33228666 -303.50436401 128.84667969 C-303.43966567 130.80930425 -303.37234406 132.77184179 -303.30493164 134.734375 C-303.18368456 138.48937512 -303.08610548 142.24403576 -303 146 C-302.98072575 146.69513388 -302.96145149 147.39026775 -302.94159317 148.10646629 C-302.88606378 150.24892723 -302.84934036 152.39101287 -302.81689453 154.53393555 C-302.79192902 155.80609421 -302.7669635 157.07825287 -302.74124146 158.38896179 C-303.18685319 164.60758153 -305.8602726 169.45874554 -308.875 174.8125 C-309.46490723 175.92270508 -310.05481445 177.03291016 -310.66259766 178.17675781 C-311.85496392 180.41449954 -313.06095433 182.64504135 -314.28125 184.86767578 C-316.71054425 189.29492653 -319.03788008 193.7736726 -321.375 198.25 C-323.63561614 202.54991641 -325.91060298 206.83968117 -328.2421875 211.1015625 C-328.91206737 212.35905075 -329.58137441 213.61684438 -330.25 214.875 C-330.83265625 215.94492187 -331.4153125 217.01484375 -332.015625 218.1171875 C-333.25508507 221.74703486 -332.63759587 222.61069554 -331 226 C-329.88702866 227.77313105 -328.72398549 229.51542256 -327.5234375 231.23046875 C-326.51796875 232.68163086 -326.51796875 232.68163086 -325.4921875 234.16210938 C-324.79351562 235.16048828 -324.09484375 236.15886719 -323.375 237.1875 C-321.98276107 239.17804599 -320.59451699 241.1713941 -319.2109375 243.16796875 C-318.59524902 244.04735107 -317.97956055 244.9267334 -317.34521484 245.83276367 C-316 248 -316 248 -316 250 C-313.41957502 249.64641407 -312.30072156 249.38440827 -310.66650391 247.29541016 C-310.27382324 246.55081543 -309.88114258 245.8062207 -309.4765625 245.0390625 C-309.02023437 244.18892578 -308.56390625 243.33878906 -308.09375 242.46289062 C-307.36671875 241.05813477 -307.36671875 241.05813477 -306.625 239.625 C-306.10679687 238.64982422 -305.58859375 237.67464844 -305.0546875 236.66992188 C-303.35307271 233.45508537 -301.67393895 230.22932698 -300 227 C-299.42862305 225.90010742 -298.85724609 224.80021484 -298.26855469 223.66699219 C-295.91210097 219.12682982 -293.55919863 214.58488666 -291.21557617 210.03808594 C-287.08073494 202.02900031 -282.81540639 194.10268634 -278.46875 186.20703125 C-274.70952662 179.35666928 -271.08602392 172.44240623 -267.5 165.5 C-263.44751105 157.65453519 -259.32102791 149.86057065 -255.0625 142.125 C-250.58016952 133.98071253 -246.25771291 125.76384164 -242 117.5 C-236.28992398 106.41985524 -230.42366191 95.43669571 -224.38671875 84.53125 C-223.37514854 82.68477818 -222.37995512 80.82930698 -221.39453125 78.96875 C-220.86214844 77.9684375 -220.32976562 76.968125 -219.78125 75.9375 C-219.29720703 75.01839844 -218.81316406 74.09929687 -218.31445312 73.15234375 C-217 71 -217 71 -215 70 C-212.36459951 94.20784626 -210.21903252 118.45562773 -208.08551025 142.71185303 C-207.62435428 147.94931885 -207.16068873 153.18656251 -206.69726562 158.42382812 C-205.79578981 168.61567554 -204.89698847 178.80775674 -204 189 C-203.522425 187.99941055 -203.522425 187.99941055 -203.03520203 186.97860718 C-195.58937522 171.40591536 -188.00019675 155.90986712 -180.26953125 140.4765625 C-179.63494806 139.20955631 -179.63494806 139.20955631 -178.98754501 137.91695404 C-175.93206619 131.81819553 -172.87268267 125.72139929 -169.8125 119.625 C-166.74143825 113.50682185 -163.67160006 107.38803614 -160.60534286 101.26744843 C-159.7611784 99.58292315 -158.91649075 97.89865996 -158.07126236 96.21466827 C-152.596719 85.30486405 -147.19601334 74.37118516 -142.16548157 63.2472229 C-141.78175888 62.41846649 -141.39803619 61.58971008 -141.00268555 60.73583984 C-140.68365768 60.02970551 -140.36462982 59.32357117 -140.03593445 58.59603882 C-139 57 -139 57 -136 56 C-135.95969193 56.64291772 -135.91938387 57.28583544 -135.87785435 57.94823551 C-134.89595936 73.60649046 -133.91098479 89.2645482 -132.92260075 104.92239475 C-132.4446959 112.49447456 -131.96782578 120.06661685 -131.4934082 127.63891602 C-131.07980585 134.24048568 -130.66424506 140.84192868 -130.24635214 147.44322819 C-130.02523992 150.9371322 -129.80509529 154.43109101 -129.58729744 157.92520332 C-129.34386557 161.82996809 -129.0960606 165.73444876 -128.84790039 169.63891602 C-128.77668976 170.79194214 -128.70547913 171.94496826 -128.6321106 173.13293457 C-128.28949184 178.46918206 -127.86504058 183.72190893 -127 189 C-126.58339111 188.21165771 -126.16678223 187.42331543 -125.73754883 186.61108398 C-118.71871205 173.34622352 -111.70347957 160.0900059 -104.25 147.0625 C-99.39474299 138.57326527 -94.80241638 129.97537789 -90.31420898 121.28710938 C-85.72570028 112.4193954 -80.90328114 103.69657141 -76 95 C-75.12604396 93.44415538 -74.25234866 91.88816428 -73.37890625 90.33203125 C-71.25641761 86.55252984 -69.12952768 82.77553941 -67 79 C-68.15628906 78.27683594 -68.15628906 78.27683594 -69.3359375 77.5390625 C-70.33882813 76.90742188 -71.34171875 76.27578125 -72.375 75.625 C-73.37273437 74.99851562 -74.37046875 74.37203125 -75.3984375 73.7265625 C-78 72 -78 72 -80 70 C-75.8674953 65.65435752 -71.62753603 61.61719941 -66.9375 57.875 C-62.24980245 54.11703997 -57.86226989 50.12978404 -53.5 46 C-48.45603018 41.22801204 -43.30603276 36.73814518 -37.875 32.40625 C-34.28619233 29.40257401 -30.89887857 26.21517839 -27.5 23 C-22.3079122 18.0905104 -17.03583612 13.43583556 -11.44921875 8.9765625 C-8.36363964 6.48644602 -5.40758077 3.86682269 -2.4609375 1.21484375 C-1 0 -1 0 0 0 Z M-409 195 C-409.30067383 195.58152832 -409.60134766 196.16305664 -409.91113281 196.76220703 C-415.603013 207.75661355 -421.35360983 218.71016618 -427.3125 229.5625 C-428.77081246 232.24141809 -430.22747762 234.92122715 -431.68408203 237.60107422 C-432.87272655 239.76797979 -434.08689301 241.91804685 -435.30859375 244.06640625 C-439.33351095 251.32151795 -441.60184387 257.63481533 -440 266 C-438.32191414 269.60477703 -437.14562814 271.27989088 -433.8125 273.375 C-425.81701175 275.15177517 -419.21129299 273.86830949 -412 270 C-408.17768727 267.24808935 -405.7817555 264.54834454 -403.29296875 260.5625 C-402.62330078 259.50160156 -401.95363281 258.44070313 -401.26367188 257.34765625 C-400.57853516 256.24292969 -399.89339844 255.13820313 -399.1875 254 C-397.82799497 251.83259772 -396.46731951 249.66592915 -395.10546875 247.5 C-394.43692871 246.43394531 -393.76838867 245.36789062 -393.07958984 244.26953125 C-389.80555126 239.12208764 -386.41104962 234.05762575 -383 229 C-384.34676352 226.15036092 -385.87185832 223.64277935 -387.72265625 221.09375 C-388.25721436 220.35495605 -388.79177246 219.61616211 -389.3425293 218.85498047 C-389.91011963 218.07783691 -390.47770996 217.30069336 -391.0625 216.5 C-391.64233643 215.70352051 -392.22217285 214.90704102 -392.81958008 214.08642578 C-393.99102702 212.47991624 -395.16410665 210.87459588 -396.33886719 209.27050781 C-397.82858104 207.23430281 -399.30971375 205.19217462 -400.7890625 203.1484375 C-401.58785604 202.05678964 -402.38728359 200.96560527 -403.1875 199.875 C-403.88230469 198.92367187 -404.57710937 197.97234375 -405.29296875 196.9921875 C-405.85628906 196.33476562 -406.41960937 195.67734375 -407 195 C-407.66 195 -408.32 195 -409 195 Z " fill="#D92726" transform="translate(496,96)"/>
</svg>
